<svg xmlns="http://www.w3.org/2000/svg" viewBox="0 0 177.42 31.7"><path d="M138.31 0c-5.25 0-9.5 4.25-9.5 9.5s4.25 9.5 9.5 9.5 9.5-4.25 9.5-9.5-4.25-9.5-9.5-9.5zm0 14.68a5.181 5.181 0 010-10.36 5.181 5.181 0 010 10.36zM25.26 31.7v-.71c0-3.6 0-6.73.02-9.37.01-2.64.02-4.98.02-7.01s.01-3.91.04-5.5v-.29l-.71 2.03c-.36 1.03-.75 2.14-1.18 3.31-.43 1.17-.93 2.54-1.5 4.12-.57 1.57-1.24 3.41-2.02 5.51-.77 2.1-1.67 4.58-2.7 7.44l-.17.47h-3.95l-.17-.46c-1.62-4.4-3.28-8.87-4.95-13.29C6.88 15 5.8 12.03 4.78 9.09c.01.7.03 1.41.04 2.13.01 1.15.02 2.36.02 3.65s0 2.71.02 4.28c.01 1.58.02 3.34.02 5.28v7.27H0V0h6.43l.17.46C8.17 4.66 9.74 8.84 11.32 13c1.32 3.49 2.6 7.03 3.82 10.56.2-.6.4-1.18.59-1.73.4-1.14.8-2.28 1.2-3.41.4-1.13.82-2.29 1.25-3.48.43-1.19.91-2.49 1.44-3.89.52-1.37 1.09-2.94 1.71-4.68.61-1.73 1.32-3.7 2.12-5.9l.17-.47h6.52v31.7h-4.89zm33.12 0l-2.92-8.15H43.29l-2.92 8.15h-5.48L47.16 0h4.88l11.85 31.7h-5.51zM53.88 19c-.8-2.22-1.6-4.43-2.4-6.62-.69-1.87-1.37-3.78-2.04-5.67-.24.69-.57 1.59-.98 2.7-.41 1.11-.92 2.5-1.52 4.17-.52 1.46-1.18 3.27-1.97 5.42h8.91zm34.03 12.7l-8.58-12.82h-5.56V31.7h-5.02V0h10.02c1.59 0 3.09.04 4.43.11 1.4.08 2.72.36 3.93.84 1.57.63 2.83 1.7 3.75 3.18.91 1.47 1.37 3.19 1.37 5.11 0 2.49-.77 4.57-2.3 6.17-1.3 1.37-3.13 2.31-5.43 2.79l9.36 13.49H87.9zm-8.16-17.5c2.53 0 4.42-.41 5.61-1.22 1.12-.76 1.66-2 1.66-3.78 0-.77-.14-1.46-.43-2.06a4.1 4.1 0 00-1.15-1.47c-.5-.4-1.16-.67-1.96-.79-.89-.14-2.18-.21-3.82-.21h-5.9v9.52h5.98zm39.31 17.5l-.21-.33c-2.72-4.26-5.47-8.54-8.25-12.84-2.26-3.5-4.45-6.94-6.54-10.27.02 1.35.03 3.13.04 5.33.01 4.25.02 10.04.02 17.39v.71H99.1V0h5.43l.21.33c1.3 2.06 2.66 4.19 4.08 6.41 1.42 2.22 2.83 4.42 4.23 6.6 1.41 2.19 2.77 4.34 4.09 6.44.8 1.27 1.56 2.51 2.29 3.7 0-.76-.02-1.56-.02-2.39-.02-1.86-.03-3.87-.04-6.03-.02-2.16-.02-4.45-.02-6.87V0h5.02v31.7h-5.3zm53.06 0l-.21-.33c-2.72-4.26-5.47-8.54-8.25-12.84-2.27-3.51-4.46-6.95-6.54-10.27.02 1.35.03 3.13.04 5.33.01 4.25.02 10.04.02 17.39v.71h-5.02V0h5.43l.21.33c1.3 2.06 2.66 4.19 4.08 6.41 1.42 2.22 2.83 4.42 4.23 6.6 1.41 2.19 2.77 4.34 4.09 6.44.8 1.27 1.56 2.51 2.29 3.7 0-.76-.02-1.56-.02-2.39-.02-1.86-.03-3.87-.04-6.03-.02-2.16-.02-4.45-.02-6.87V0h5.02v31.7h-5.3z" fill="#231815"/></svg>